<svg width="43" height="43" viewBox="0 0 43 43" fill="none" xmlns="http://www.w3.org/2000/svg">
<mask id="mask0_849_3456" style="mask-type:alpha" maskUnits="userSpaceOnUse" x="0" y="0" width="43" height="43">
<circle cx="21.5" cy="21.5" r="21.5" fill="#C4E9FA"/>
</mask>
<g mask="url(#mask0_849_3456)">
<rect x="-23.3667" y="-10.6465" width="76.4598" height="61.9421" fill="#449BC0"/>
<path d="M5.56219 12.6086C3.52159 5.23918 7.43683 1.04699 9.64953 -0.12793L36.9702 5.44059V20.5467C36.7774 22.0709 32.5176 25.1081 32.2103 28.5144C28.3147 30.8015 18.4681 33.4267 16.0725 32.7797C15.7428 32.6906 14.0135 32.9278 13.1837 32.9278C11.2271 32.8784 6.9943 32.5546 5.71585 31.6541C4.4374 30.7537 4.6095 29.1463 4.85535 28.4552C4.80413 27.9813 4.59106 26.992 4.14852 26.8261C3.70598 26.6602 3.51339 26.2831 3.47242 26.1152C3.22656 25.3806 3.82071 24.9008 4.14852 24.7527C3.88218 24.5849 3.31876 24.1129 3.19583 23.5679C3.04217 22.8867 3.77974 22.3535 4.14852 21.7907C4.44354 21.3405 4.12803 20.9318 3.9334 20.7837C3.09339 20.1715 1.74528 18.7991 3.0729 18.2067C4.73243 17.4662 5.43926 14.5043 5.56219 13.9119C5.66053 13.4379 5.60316 12.8455 5.56219 12.6086Z" fill="#DBEFFA"/>
<path d="M38.2702 35.837C37.2889 31.0194 37.4718 26.9775 37.6859 25.5588L17.8331 29.8388L19.7078 43.5244C26.3041 42.9693 39.2514 40.6546 38.2702 35.837Z" fill="#DBEFFA"/>
<path d="M7.56773 3.20717C9.8298 0.270996 13.0107 -1.98033 16.6981 -3.25501C20.3856 -4.5297 24.4095 -4.76896 28.2484 -3.9418C32.0873 -3.11464 35.5642 -1.25918 38.2284 1.38407C40.8926 4.02732 42.6213 7.3365 43.1903 10.8827C43.7594 14.4289 43.1426 18.0486 41.42 21.2726C39.6973 24.4966 36.9482 27.1764 33.529 28.9645C30.1098 30.7525 26.178 31.5665 22.2434 31.301C18.3088 31.0354 14.5528 29.7024 11.4621 27.4749L23.7029 13.4627L7.56773 3.20717Z" fill="#DBEFFA"/>
<path d="M8.12919 38.032C21.7082 38.6945 20.9063 33.02 20.2219 29.5605C20.2219 29.5605 19.6136 26.7992 19.4522 25.9538M19.4522 25.9538C16.5559 10.7841 23.8614 10.4207 27.7063 13.9073C28.0397 14.2096 29.7551 15.9579 30.369 19.0132C31.032 22.3127 29.4518 26.0983 25.7351 26.9088C23.4739 27.4019 20.9519 27.4142 19.4522 25.9538Z" stroke="#449BC0" stroke-width="5"/>
</g>
</svg>
