<svg width="42" height="38" viewBox="0 0 42 38" fill="none" xmlns="http://www.w3.org/2000/svg">
<rect width="36" height="36" rx="18" fill="#DBEFFA"/>
<mask id="mask0_74_117" style="mask-type:alpha" maskUnits="userSpaceOnUse" x="6" y="2" width="36" height="36">
<circle cx="24" cy="20" r="18" fill="#C4E9FA"/>
</mask>
<g mask="url(#mask0_74_117)">
<rect x="-13.563" y="-6.91318" width="64.0129" height="51.8585" fill="#449BC0"/>
<path d="M13.4022 13.2893C11.5463 6.57941 15.1071 2.76242 17.1195 1.69266L41.9668 6.7628V20.5169C41.7914 21.9047 37.9173 24.6701 37.6378 27.7715C34.0949 29.854 25.1398 32.2441 22.961 31.655C22.6611 31.574 21.0884 31.7899 20.3337 31.7899C18.5543 31.7449 14.7046 31.4501 13.5419 30.6302C12.3792 29.8104 12.5358 28.3469 12.7593 27.7176C12.7128 27.2861 12.519 26.3853 12.1165 26.2343C11.714 26.0833 11.5389 25.7399 11.5016 25.5871C11.278 24.9182 11.8184 24.4813 12.1165 24.3465C11.8743 24.1937 11.3619 23.764 11.2501 23.2677C11.1103 22.6474 11.7811 22.162 12.1165 21.6496C12.3848 21.2397 12.0979 20.8675 11.9209 20.7327C11.1569 20.1753 9.93084 18.9257 11.1383 18.3864C12.6475 17.7122 13.2904 15.0153 13.4022 14.4759C13.4916 14.0444 13.4395 13.505 13.4022 13.2893Z" fill="#DBEFFA"/>
<path d="M38.1124 33.6508C37.3751 30.7165 37.5259 28.257 37.6935 27.394L22.5001 29.956L23.8965 38.2894C28.9424 37.9658 38.8497 36.585 38.1124 33.6508Z" fill="#DBEFFA"/>
<path d="M14.7824 3.87509C16.6762 1.4169 19.3393 -0.46793 22.4264 -1.53511C25.5136 -2.60228 28.8825 -2.8026 32.0964 -2.11009C35.3104 -1.41758 38.2213 0.135823 40.4518 2.34878C42.6822 4.56174 44.1295 7.33221 44.6059 10.3011C45.0824 13.27 44.566 16.3005 43.1238 18.9996C41.6816 21.6988 39.38 23.9423 36.5174 25.4393C33.6548 26.9363 30.3631 27.6178 27.069 27.3955C23.7749 27.1731 20.6303 26.0572 18.0427 24.1923L28.2909 12.4611L14.7824 3.87509Z" fill="#DBEFFA"/>
<path d="M18 33.7016C20.0818 33.5239 23.7801 32.4138 25.0252 31.6698C27.5465 30.1631 28.4284 28.5528 26.7832 18.8323C25.4671 11.0559 30.9725 10.2351 33.8897 10.7968" stroke="#449BC0" stroke-width="3" stroke-linecap="round"/>
<path d="M23.9197 22.9482L32.4478 21.8583" stroke="#449BC0" stroke-width="3" stroke-linecap="round"/>
</g>
</svg>
